<svg width="128" height="145" viewBox="0 0 128 145" fill="none" xmlns="http://www.w3.org/2000/svg">
<g id="logos:tiktok-icon">
<path id="Vector" d="M94.86 52.2105C104.199 58.883 115.64 62.809 127.996 62.809V39.044C125.658 39.0449 123.325 38.8009 121.037 38.316V57.0225C108.682 57.0225 97.2425 53.097 87.9015 46.425V94.923C87.9015 119.185 68.2235 138.851 43.9515 138.851C34.895 138.851 26.477 136.114 19.4845 131.421C27.4655 139.577 38.5955 144.637 50.9085 144.637C75.1825 144.637 94.861 124.971 94.861 100.708V52.2105H94.86ZM103.445 28.2345C98.672 23.023 95.538 16.288 94.86 8.84202V5.78552H88.2655C89.9255 15.249 95.588 23.334 103.445 28.2345ZM34.8365 112.804C32.1697 109.309 30.7282 105.034 30.735 100.639C30.735 89.5425 39.7355 80.5455 50.84 80.5455C52.9091 80.5444 54.9661 80.8619 56.9385 81.487V57.1905C54.6335 56.875 52.3075 56.7405 49.9825 56.79V75.701C48.0091 75.0758 45.9511 74.7584 43.881 74.76C32.777 74.76 23.777 83.756 23.777 94.8535C23.777 102.701 28.2755 109.494 34.8365 112.804Z" fill="#FF004F"/>
<path id="Vector_2" d="M87.9015 46.4245C97.243 53.0965 108.681 57.022 121.037 57.022V38.3155C114.14 36.847 108.035 33.245 103.445 28.2345C95.587 23.3335 89.9255 15.2485 88.2655 5.78552H70.944V100.707C70.9045 111.773 61.9195 120.733 50.839 120.733C44.31 120.733 38.509 117.623 34.8355 112.803C28.2755 109.494 23.7765 102.7 23.7765 94.854C23.7765 83.7575 32.7765 74.7605 43.8805 74.7605C46.008 74.7605 48.0585 75.0915 49.982 75.7015V56.7905C26.136 57.283 6.9585 76.757 6.9585 100.708C6.9585 112.664 11.734 123.502 19.485 131.422C26.4775 136.114 34.895 138.852 43.952 138.852C68.2245 138.852 87.902 119.184 87.902 94.923L87.9015 46.4245Z" fill="black"/>
<path id="Vector_3" d="M121.037 38.315V33.258C114.818 33.267 108.721 31.5262 103.445 28.2345C108.116 33.3456 114.266 36.8702 121.037 38.316M88.265 5.785C88.1069 4.88079 87.9855 3.97054 87.901 3.0565V0H63.984V94.9225C63.946 105.988 54.961 114.948 43.88 114.948C40.7386 114.952 37.6402 114.218 34.835 112.804C38.5085 117.623 44.3095 120.732 50.8385 120.732C61.9185 120.732 70.9045 111.773 70.9435 100.707V5.7855L88.265 5.785ZM49.983 56.79V51.4055C47.9844 51.1326 45.9696 50.996 43.9525 50.9965C19.6775 50.9965 0 70.6635 0 94.9225C0 110.132 7.7335 123.536 19.4855 131.421C11.7345 123.502 6.959 112.663 6.959 100.707C6.959 76.757 26.136 57.2825 49.983 56.79Z" fill="#00F2EA"/>
</g>
</svg>
